<svg width="50.08mm" height="50.08mm" viewBox="0 0 141.96 141.96" xml:space="preserve" xmlns="http://www.w3.org/2000/svg"><path d="M141.96 70.98c0 .81-.01 1.61-.02 2.4q-.075 5.2-.48 10.04c-.19 2.12-.42 4.19-.71 6.2-4.05 28.65-18.91 46.69-51.95 51.21-.92.13-1.85.24-2.79.34a131.28 131.28 0 0 1-13.33.78c-.56.01-1.13.01-1.7.01q-2.61 0-5.1-.09c-.12 0-.25-.01-.37-.01C16.18 140.12 0 114.27 0 70.98 0 26.13 17.37 0 70.98 0c51.1 0 69.28 23.74 70.86 64.83.02.35.03.7.04 1.05.05 1.67.08 3.37.08 5.1z" fill="#d1e8d6"/><g aria-label="comic" style="font-size:32px;line-height:125%;font-family:Grinched;letter-spacing:0;word-spacing:0;fill:#29cc82;stroke:#191c1a;stroke-width:.751"><path d="m50.118 74.76 1.943.2q-.037.357-.266.758l-.013.124-.32.674-.122.27-.2.561-.121.27-.07.213q-6.933 1.597-5.432 6.102 2.696 4.8 5.974-.203l1.335 1.833q.127.139.332.442.137.187.223.275.075.18.055.382-4.853 4.434-10.55 1.022-.395-.292-.822-.87l-.085-.087q-.289-.407-.67-1.734-.306-6.361 6.32-9.702l1.536-.423.284-.018zM58.58 75.566l1.461.15.292.062.932.41.28.185.384.228q3.706 3.224 3.343 8.448-.066 2.632-2.112 4.81-2.179 1.944-5.18.74-3.725-2.283-4.288-6.896l.059-2.098q.063-2.601 2.065-4.815l.665-.513q.187-.137.483-.264l.085-.07.556-.21zm1.537 5.53q-.354-.225-.848-.307-.446.064-.93.344-1.125 1.314-.835 3.229.096 1.973 1.935 3.34.545.197 1.196-.019 1.309-1.122 1.194-3.066-.113-1.959-1.712-3.521zM78.052 75.005l.08-.007 1.959 15.028-4.316.421-.075-5.238-2.345 5.712-3.58-4.765-1.245 4.176-3.264-.336 3.325-13.716 3.946 8.84 5.443-10.028zM82.515 75.29q-.64-1.872 1.36-3.001 2.798-.781 3.49 1.505.283 2.29-2.464 2.731-1.461.007-2.386-1.234zm.143 2.277q.584.123 1.356.563l.606.22q.406.167.701.354l1.612.669-.095 1.23-.053.215.004.723-.083.196q.065.446-.06 1.046l-.098 1.718-.048.167-.035.798-.044.121-.01.706-.08.322.006.707-.07.37-.097 1.718-.055.23-.084 1.577-.073.26-.078 1.83-.122.113q-.533-.008-1.185-.232-.898-.28-1.562-.396l-.35-.114-.245-.057zM96.717 79.545l1.943.199q-.037.358-.266.758l-.013.124-.32.674-.123.27-.199.561-.121.27-.07.213q-6.933 1.597-5.432 6.102 2.695 4.8 5.974-.203l1.335 1.833q.127.14.331.443.138.187.224.274.075.18.055.383-4.854 4.433-10.55 1.021-.395-.292-.822-.87l-.086-.087q-.288-.406-.67-1.734-.305-6.36 6.321-9.702l1.536-.423.284-.018z"/></g><g aria-label="OPEN" style="font-size:40px;line-height:125%;font-family:Grinched;letter-spacing:0;word-spacing:0;fill:#006d41;stroke:#191c1a;stroke-width:1.035"><path d="m42.352 36.356 2.282.139 1.24.443 1.554 1.038 1.026 1.082.77 1.173.282.437.257.613.147.356.166.375.112.179q3.108 10.262-2.43 20.92-2.179 4.025-6.428 6.57-.316.147-.809.31-.375.146-.67.197l-.924.23-2.516-.145q-.31-.087-.715-.293l-.464-.208q-.831-.334-1.747-1.18l-.834-.94-.451-.676-.17-.2-.372-.733-.114-.12q-2.178-4.786-1.574-10.631l.109-1.893q.148-.406.204-1.069l.062-.115.273-1.458.148-.407.068-.35.172-.6.065-.234q.209-.522.3-.988l.502-1.276.084-.232q.186-.347.417-.986l.122-.172.416-.927q.082-.174.285-.462l.064-.174.264-.403q.083-.174.267-.462l.082-.173.388-.615q.201-.23.406-.576l1.05-1.3.243-.287q.32-.285.523-.572l1.778-1.497q.2-.15.497-.319l.575-.316.12-.115.99-.481.434-.145.492-.143.373-.049zm.871 12.078q-.657-.994-1.964-1.068l-.868.29q-3.497 2.955-4.187 8.31l-.138 2.262q.03.352-.003.84l.301 1.923q.113.179.163.473.17.259.313.731.374.616 1.004 1.2.424.206.95.24.804-.077 1.54-.565 4.76-4.876 3.677-12.68-.086-.433-.363-1.046-.034-.177-.202-.474z"/><path d="M57.72 36.686q12.938-.888 14.52 10.916l-.066 4.688q-3.457 8.798-13.435 7.81-.248.54-.328 1.34-.128.406-.203 1.03l-.083.173-.135.66-.064.195-.008.292q-.06.057-.065.253l-.353 1.514-.07.409-.068.37-.066.31q-.195.718-.27 1.321l-.151.544-.07.428-.27 1.34q-.316.11-.804.096l-.177.054-.665.041-.373.049q-.254-.007-.607.042l-.254-.006-.431.066-.548.044q-.353.05-.842.037l.04-1.523q-.053-.197-.045-.49l.04-1.464-.074-.178.055-2.07-.05-.313.046-1.758-.053-.196.051-1.933-.053-.197.048-1.816-.046-.49.036-1.347-.044-.548.047-1.757-.048-.431.044-1.64q-.052-.256-.043-.607l.018-3.595q-.052-.255-.042-.626l.038-1.445-.045-.49.05-1.893q-.106-.433-.034-.92l.032-1.21-.054-.177.102-3.847q.434-.164 1.101-.264l.12-.075.49-.104.256-.052.236-.052.686-.099.236-.052.49-.065q.06-.057.236-.053l.628-.1.234.006q.549-.044.921-.093zm9.686 14.149q.2-5.31-6.613-5.549-.148.426-.165 1.09l-.082.857-.063.174-.077.682-.08.838-.069.37-.014.546-.073.545-.07.428-.1.78-.068.369-.089 1.15-.071.487-.066.252-.01.37-.079.78-.07.428q6.687.55 7.86-4.597zM88.315 35.994l.468.051q.028.411-.16.856l-.112.544-.087.35-.061.095-.09.408-.216.815-.09.408-.105.29-.09.447-.088.37-.105.27-.236.814-.047.292-.087.35-.086.29-.94.092-.294.012q-.43.028-1.02.149-.234-.026-.607.062l-.234-.026q-.432.067-.96.072l-.353.089-.234-.026-.432.086-.47.007-1.039.149q-.529.064-.763.038-.164.289-.196.757l-.082.173-.115.622-.028.351-.064.175-.049.37-.108.407-.085.271-.03.41-.114.583q-.08.076-.085.252-.106.329-.078.74l1.515-.39.433-.125.846-.212.55-.122.255-.052.768-.214.235-.033 1.3-.356.293-.031.375-.127.294-.051-.072 1.971q.087.394-.023.88l.036.117-.058 1.425.035.177-.095 2.107.053.197-.051.468-1.688.268q-.291-.047-.665.04-.354.07-1.02.15l-1.667.248-.61.12-.41.029q-.491.104-1.216.163l-.727.156q-.115.642-.145 1.052-.133.602-.2.932l-.19 1.226-.084.232-.17 1.285-.135.641-.086.291-.163.992.03.353 1.513-.331.235-.033.374-.088.175.024.237-.11.784-.077.235-.033.806-.174.235-.033 2.279-.448q.49-.104 1.334-.218.315-.09.432-.067l1.511-.272q-.01.41-.16.875l-.111.524-.087.33-.062.116-.109.427-.024.175q-.06.037-.147.387l-.22.932-.067.29-.105.291-.064.213-.106.29-.35 1.398-.047.331q-.551.142-1.313.121l-.784.097q-.293-.008-.724.059l-.645.002-.293.012-.256.052-.294.031-.527.006q-.432.086-1.077.069-.294.031-.51.064-.215.034-.508.026-.353.03-.608.062l-.41.009-1.312.101-.41.029q-.314.03-.53.044-.195-.005-.43.008-.234.014-.55.103-.877-.043-1.37.1-.352.03-.586.004l-.411.028q-.08.037-.254.013l-.41-.03.563-5.749q.109-.407.163-.992l.218-2.3.082-.154.269-2.767q.007-.293.135-.7l.253-2.885.084-.213.291-2.884q.09-.407.142-.934l.024-.155q.09-.428.026-.976l.188-1.207q.063-.174.09-.466l.186-1.832q-.026-.47.167-1.148l.274-2.943q.107-.35.14-.837l.134-1.403q.432-.067.96-.092l.293-.011q.412-.029.962-.15l.488-.007.177-.035 1.978-.182.354-.088.292.047.374-.088.821-.037q.374-.087.55-.063l.412-.087.372-.03.41-.008.353-.03.725-.097.176.004 1.02-.149.371-.01.843-.094.47-.027.725-.098.528-.005zM93.476 37.362q.083-.174.13-.485.357.556.606 1.481l.31.81.034.196q.15.277.33.81l.128.335.583 1.598.09.315q.185.357.309.868.148.278.31.81l.034.196.856 2.347.15.258.124.473q.241.475.437 1.203l.366.928.034.196.275.672q.149.277.271.808l.276.672.034.196.549 1.402q.184.415.343 1.064l.458 1.145.309.868 5.026-17.118 6.966.34q-.093.565-.444 1.259l-.08.115-.188.425q-.29.657-.417 1.005l-.457 1.004q-.127.368-.373.83l-.104.232q-.108.368-.374.83l-.127.368q-.247.462-.562 1.294-.164.289-.309.597-.144.29-.273.716l-1.225 2.722-.268.52-.128.427q-.246.404-.478 1.062l-.081.115q-.108.369-.353.772l-.23.6q-.06.037-.085.232-.266.462-.581 1.294l-.748 1.66-.104.232-.104.251q-.245.404-.478 1.062l-1.307 2.896-.025.175-.64 1.292-.128.427-1.433 3.205-.085.232-.455.945-.103.232-.584 1.372q-.39-.753-.558-1.793l-.217-.67-.126-.394-.032-.255-.607-2.185-.034-.177q-.147-.336-.25-.866l-.16-.649-.147-.336q-.046-.45-.263-1.12l-.126-.395-.214-.787q-.034-.196-.161-.532-.033-.255-.16-.649l-.499-1.79q-.092-.199-.103-.512l-.092-.217-.16-.59-.167 1.109-.011.449-.12.856.033.197-.343 2.609.032.255-.164 1.05-.038.683-.276 2.298.034.197-.3 2.473.034.196-.191 1.304-6.189-.926.592-3.892.155-.68.211-1.342.129-.427.19-1.245q.05-.429.201-.972l.236-1.537.129-.426.285-1.908q.083-.193.13-.484l.238-1.616.083-.173.307-1.985.105-.29.168-1.168q.091-.506.27-1.36.06-.742.344-1.906l.119-.798q.093-.545.27-1.341l.235-1.479.13-.485.237-1.557.106-.349.307-1.984.083-.174.308-2.043z"/></g><g aria-label="vine" style="font-size:32px;line-height:125%;font-family:Grinched;letter-spacing:0;word-spacing:0;fill:#f9e150;stroke:#191c1a;stroke-width:.751"><path d="m73.034 97.41.421.025q-.051.341-.286.86-.087.151-.134.414l-.178.365q-.099.339-.224.597l-.04.155-.148.382-.04.139-.635 1.73-.05.06q-.1.338-.354.934l-.056.153-1.176 3.185-.056.138-.257.642-.056.153-.447 1.195q-.099.338-.315.81l-.409 1.087q-.06.231-.186.49l-.675 1.87q-.058.184-.18.411l-.007.11-.458 1.115q-.245-.36-.4-.9l-.14-.275-.065-.239-.096-.225-.07-.13-.065-.222q-.1-.163-.164-.401l-.598-1.523q-.025-.111-.123-.305l-.201-.56-.071-.113-.067-.192-.16-.464q-.098-.209-.205-.513l-.193-.434-.107-.304q-.028-.048-.069-.16l-.191-.466-.064-.238-.209-.435-.022-.158-.53-1.331q-.099-.194-.206-.498l-.024-.126q-.143-.228-.231-.578l-.111-.24q-.056-.114-.123-.306l-.27-.705q-.071-.129-.138-.32l-.162-.433q-.098-.194-.19-.497l-.039-.127q-.1-.147-.165-.386l-.095-.24-.364-.977q-.045-.034-.14-.274l-.193-.7q.423-.007.688.01l.08-.043.266.016.126-.024.297.018q.189-.02.454-.004l.08-.042.736.012.112-.04.187.011.189-.02.767-.001.267-.016q.093.272.146.698l.109.273.022.157.035.19q.094.272.147.698l.024.11q.067.193.125.54l.066.192.022.158.1.429q.09.318.168.855.067.192.062.27l.28 1.08-.006.11.34 1.367.019.22.037.159.388 1.635q.094-.26.119-.682l.054-.122.013-.218q.094-.26.114-.604.039-.123.05-.31.105-.447.124-.76l.047-.263.072-.418q.094-.26.118-.666l.047-.263.063-.278.047-.264.06-.481.061-.231.17-1.023q.059-.185.073-.419l.037-.107q.02-.312.124-.76l.013-.218.05-.31q.064-.294.11-.526.058-.184.07-.387l.05-.325q.27-.063.694-.084l.267-.016.315-.028.267-.015.159-.038.833-.06q.192-.066.504-.048zM74.245 97.06q-.72-1.843 1.231-3.057 2.762-.9 3.55 1.354.381 2.277-2.344 2.834-1.46.07-2.437-1.131zm.24 2.268q.59.098 1.379.505l.614.193q.414.15.717.325l1.639.598-.043 1.234-.044.217.035.722-.074.2q.083.442-.016 1.047l-.024 1.72-.042.17v.798l-.039.123.02.706-.066.325.036.706-.053.373-.025 1.72-.045.232-.016 1.58-.062.262v1.832l-.117.118q-.533.015-1.194-.18-.91-.243-1.577-.33l-.354-.1-.248-.045zM90.557 100.444q.533-.015.882-.104l.28.032q-.002.298-.114.604l-.143.555-.079.277-.12.447-.026.155q-.05.044-.056.153l-.143.57-.058.185-.075.199-.086.402q-.109.244-.143.555-.11.275-.2.724l-.054.122q-.03.233-.143.555l-.023.123-.117.385q-.058.2-.086.402l-.11.275-.08.277-.066.324q-.076.23-.087.402-.048.029-.079.277l-.06.231q-.075.2-.13.322-.03.248-.142.554l-.063.278-.08.277-.22.801-.06.231-.057.17q-.03.232-.143.554l-.225.879-.059.2-.076.23-.01.156-.128.321-.066.325-.084.355-.077.246-.196.661-.01.172q-.106.197-.14.508l-.06.2q-.054.122-.081.324l-.11.275-.083.324-.364-.71-.074-.083q-.376-.774-.717-1.358l-.053-.16q-.315-.488-.521-.97l-.058-.082-.068-.176-.268-.486-.116-.163-.769-1.533-.073-.083-.335-.693-.098-.178.016.252-.006.36q.063.254.037.424l.022.158.021.174q.012.329.034.487l.02.173.056.911q.019.205.061.286l-.026.17q.069.161.038.41.046.284.04.66l.062.254-.025.155.076.834q.047.253.054.66l.04.379v.281l-.488.034-.124-.023-.707.051-.235.002-.172-.01-.204.019q-.707.036-1.191.023l-.205.019-.251.016.011-.453-.014-.283.002-.297-.015-.283q.006-.36.02-.61l-.026-.079q.01-.422.04-.655-.06-.301-.004-.736l-.013-.298-.022-.158.04-1.469-.025-.095.033-.28q-.044-.05-.047-.269.013-.218.043-.467l-.026-.08.03-.248-.039-.128.032-.28q-.023-.126.004-.328l-.013-.298-.002-1.018.01-.156-.022-.173.033-.28q-.045-.3.012-.735l-.013-.298-.022-.158.03-.249-.039-.127.034-.562.011-.453-.014-.298-.019-.205q.035-.311.018-.813l.007-.125.011-.453-.014-.283.001-.281.01-.172q.004-.328-.013-.564l.01-.172-.012-.58.028-.201-.02-.205.011-.438q.222.217.417.62l.389.571.07.13q.146.18.315.488l.272.439q.07.13.244.359l.17.307.114.18.373.57.386.617.146.181.341.568.245.36q.141.258.243.39l.485.795q.143.212.26.36l.514.83.143.227q.172.26.274.392l.386.618.17.276.3-2.643q.08-.308.126-.807l.287-2.456.062-.246.333-2.954q.303-.092.631-.088.255-.063.71-.083.235-.017.616-.104l.171.026.412-.085.205-.02z"/><path d="M90.72 110.018q-1.276-6.933 4.367-8.646 4.956-.675 6.568 4.305.132.415.436 2.405l-.714.161-.333.074-.334.074-.333.074-.286.077-.428.084-.176.068-.38.07-1.047.236q-.367.119-.952.209l-.475.097-.333.074-.27.062-.286.077-.94.272q-.47 2.633 1.651 3.276 2.505-.007 4.97-1.69l.046 1.05-.02.344.034.471-.027.202.037 1.208q-.18.146-.504.314l-.688.256-.287.077-.81.202q-.189.02-.474.081l-.143.023-.524.125-1.95.166-.592-.051q-3.856-1.232-4.802-5.828zm7.384-4.115q-.542-1.926-2.687-1.397-1.242 1.132-.703 3.12l3.687-.922z"/></g></svg>